<?xml version="1.0" encoding="UTF-8"?>
<svg version="1.1" xmlns="http://www.w3.org/2000/svg" width="284" height="284">
<path d="M0 0 C6.92810724 5.66574049 13.14204142 12.03033639 19.4375 18.375 C20.56161467 19.50413955 21.68596174 20.63304778 22.81054688 21.76171875 C25.54305235 24.50515188 28.27239009 27.25169985 31 30 C37.92810724 24.33425951 44.14204142 17.96966361 50.4375 11.625 C51.56161467 10.49586045 52.68596174 9.36695222 53.81054688 8.23828125 C56.54305235 5.49484812 59.27239009 2.74830015 62 0 C92.61604722 9.03598616 118.70830666 27.74947011 134.18457031 56.17578125 C146.81317076 80.62944264 151.1083749 106.66605407 147 134 C145.7625 133.7834375 145.7625 133.7834375 144.5 133.5625 C120.35905034 129.68270452 98.69377867 132.6883969 78.125 146.3125 C60.03007853 159.58210908 48.66122392 177.78061571 45 200 C44.67307496 205.27717069 44.71069302 210.52942191 44.8125 215.8125 C44.82759932 217.19855289 44.8412783 218.58462201 44.85351562 219.97070312 C44.88846273 223.313976 44.94225219 226.65704322 45 230 C35.76 230 26.52 230 17 230 C17.33 227.69 17.66 225.38 18 223 C19.79337977 197.05907086 13.15366848 176.07352167 -3.6015625 156.08984375 C-17.17906902 141.4087468 -37.92395669 132.7315025 -57.69140625 131.83203125 C-66.67353944 131.78671272 -75.12793435 132.44738851 -84 134 C-87.28797615 116.41172697 -86.27554198 96.08328091 -81 79 C-80.78569336 78.30277832 -80.57138672 77.60555664 -80.35058594 76.88720703 C-71.21588918 48.26648685 -50.64759973 23.76973725 -24.10327148 9.79077148 C-16.30208042 5.81224803 -8.32479796 2.70555934 0 0 Z M-32.75 63.1875 C-36.17775575 67.54386595 -38.86425716 72.07915346 -41.375 77 C-41.69694336 77.62801514 -42.01888672 78.25603027 -42.35058594 78.90307617 C-45.00383592 84.39277673 -46.53103331 90.09700551 -48 96 C-47.00540771 96.20979492 -47.00540771 96.20979492 -45.99072266 96.42382812 C-13.82854864 103.33516764 9.47706016 115.94425438 31 141 C33.73344776 138.28695111 36.43537117 135.55231667 39.09375 132.765625 C59.15585058 111.92839111 82.12183471 102.10794564 110 96 C107.77394612 76.93645345 95.46625329 60.94986815 81.3125 48.75 C44.7273092 20.91974393 -3.43198683 29.74585548 -32.75 63.1875 Z " fill="#203391" transform="translate(109,29)"/>
</svg>
